<svg width="140" height="94" viewBox="0 0 140 94" fill="none" xmlns="http://www.w3.org/2000/svg">
    <mask id="mask0_2202_916" style="mask-type:alpha" maskUnits="userSpaceOnUse" x="0" y="0" width="140" height="94">
        <rect width="140" height="93.3333" fill="#D9D9D9" />
    </mask>
    <g mask="url(#mask0_2202_916)">
        <path d="M149.333 -9.33203H-9.3335V102.668H149.333V-9.33203Z" fill="url(#paint0_linear_2202_916)" />
        <path
            d="M9.64577 32.5555H20.3376V57.3379H14.6023V37.1579H9.64577V32.5555ZM36.5737 41.7958C41.3531 41.7958 45.1059 44.8405 45.1059 49.5137C45.1059 54.5764 40.9637 57.7627 35.724 57.7627C28.8911 57.7627 24.6427 53.4789 24.6427 45.4777C24.6427 36.9101 29.8116 32.1306 37.2818 32.1306C39.9016 32.1306 42.4507 32.7325 44.1854 33.83L42.0612 38.043C40.6805 37.1225 39.0873 36.8039 37.4234 36.8039C33.2812 36.8039 30.6259 39.2467 30.4489 43.9908C31.9004 42.5393 33.9892 41.7958 36.5737 41.7958ZM35.4054 53.4789C37.8482 53.4789 39.5476 52.0628 39.5476 49.797C39.5476 47.5311 37.8836 46.0796 35.3346 46.0796C32.8209 46.0796 31.0507 47.6373 31.0507 49.797C31.0507 51.9212 32.6439 53.4789 35.4054 53.4789ZM64.143 44.3094C66.5504 45.5131 67.9312 47.4957 67.9312 50.151C67.9312 54.8242 63.7536 57.7627 57.4518 57.7627C51.1853 57.7627 47.0431 54.8242 47.0431 50.151C47.0431 47.4957 48.4239 45.5131 50.7959 44.3094C48.9549 43.1765 47.9282 41.4417 47.9282 39.2113C47.9282 34.8567 51.8226 32.1306 57.4518 32.1306C63.1517 32.1306 67.0461 34.8567 67.0461 39.2113C67.0461 41.4417 65.984 43.1765 64.143 44.3094ZM57.4518 36.3437C55.1505 36.3437 53.6282 37.512 53.6282 39.4592C53.6282 41.3355 55.1151 42.5039 57.4518 42.5039C59.8238 42.5039 61.3461 41.3355 61.3461 39.4592C61.3461 37.512 59.7884 36.3437 57.4518 36.3437ZM57.4518 53.5497C60.3194 53.5497 62.125 52.169 62.125 49.974C62.125 47.779 60.3194 46.4336 57.4518 46.4336C54.6195 46.4336 52.8493 47.779 52.8493 49.974C52.8493 52.169 54.6195 53.5497 57.4518 53.5497ZM79.0534 41.8666C86.3819 41.8666 89.285 45.1591 89.285 49.5491C89.285 53.9392 86.0633 57.7627 78.9826 57.7627C75.5484 57.7627 71.9373 56.8068 69.5299 55.1075L71.7957 50.7174C73.6721 52.1336 76.2565 52.9479 78.841 52.9479C81.7086 52.9479 83.4788 51.7441 83.4788 49.7262C83.4788 47.779 82.2043 46.5044 77.708 46.5044H71.3708L72.6454 32.5555H87.7626V37.1579H77.4248L77.0354 41.8666H79.0534Z"
            fill="white" />
        <path
            d="M14.0036 71.8235V83.1172H12.842V72.8561H10.1799V71.8235H14.0036ZM24.6734 71.8235V72.6463L19.9461 83.1172H18.6877L23.3342 72.8561H17.5261V74.9696H16.3806V71.8235H24.6734ZM34.7479 80.1486H32.4892V83.1172H31.3275V80.1486H24.9547V79.3096L30.9403 71.8235H32.231L26.4551 79.116H31.3598V76.5023H32.4892V79.116H34.7479V80.1486ZM40.3162 83.214C39.445 83.214 38.6652 82.9827 37.9768 82.5202C37.2992 82.0577 36.7668 81.3962 36.3796 80.5358C36.0031 79.6645 35.8149 78.6427 35.8149 77.4703C35.8149 76.298 36.0031 75.2815 36.3796 74.421C36.7668 73.5498 37.2992 72.883 37.9768 72.4205C38.6652 71.958 39.445 71.7267 40.3162 71.7267C41.1875 71.7267 41.9619 71.958 42.6395 72.4205C43.3279 72.883 43.8657 73.5498 44.2529 74.421C44.6401 75.2815 44.8337 76.298 44.8337 77.4703C44.8337 78.6427 44.6401 79.6645 44.2529 80.5358C43.8657 81.3962 43.3279 82.0577 42.6395 82.5202C41.9619 82.9827 41.1875 83.214 40.3162 83.214ZM40.3162 82.1492C40.9723 82.1492 41.5478 81.9663 42.0426 81.6006C42.5481 81.2349 42.9407 80.7025 43.2203 80.0034C43.5 79.3042 43.6398 78.4599 43.6398 77.4703C43.6398 76.4808 43.5 75.6365 43.2203 74.9373C42.9407 74.2382 42.5481 73.7058 42.0426 73.3401C41.5478 72.9744 40.9723 72.7915 40.3162 72.7915C39.6601 72.7915 39.0793 72.9744 38.5738 73.3401C38.079 73.7058 37.6918 74.2382 37.4121 74.9373C37.1325 75.6365 36.9927 76.4808 36.9927 77.4703C36.9927 78.4599 37.1325 79.3042 37.4121 80.0034C37.6918 80.7025 38.079 81.2349 38.5738 81.6006C39.0793 81.9663 39.6601 82.1492 40.3162 82.1492Z"
            fill="#F8BDD7" />
        <path
            d="M9.2276 12.6825H10.3892V19.0957H9.2276V12.6825ZM9.80843 11.4482C9.58255 11.4482 9.39298 11.3756 9.2397 11.2304C9.0945 11.0852 9.0219 10.9077 9.0219 10.698C9.0219 10.4883 9.0945 10.3108 9.2397 10.1656C9.39298 10.0123 9.58255 9.93567 9.80843 9.93567C10.0343 9.93567 10.2198 10.0083 10.365 10.1535C10.5183 10.2906 10.595 10.4641 10.595 10.6738C10.595 10.8916 10.5183 11.0771 10.365 11.2304C10.2198 11.3756 10.0343 11.4482 9.80843 11.4482ZM15.056 19.1925C14.4188 19.1925 13.8016 19.0957 13.2047 18.9021C12.6158 18.7004 12.1519 18.4423 11.8131 18.1277L12.2608 17.1838C12.5835 17.4742 12.9949 17.7122 13.4951 17.8978C14.0033 18.0752 14.5236 18.164 15.056 18.164C15.7579 18.164 16.2822 18.047 16.6291 17.8131C16.976 17.571 17.1494 17.2524 17.1494 16.8571C17.1494 16.5667 17.0526 16.3328 16.859 16.1553C16.6735 15.9698 16.4395 15.8286 16.1572 15.7318C15.8829 15.635 15.4917 15.5261 14.9834 15.4051C14.3462 15.2518 13.8299 15.0985 13.4346 14.9453C13.0474 14.792 12.7126 14.558 12.4302 14.2434C12.156 13.9208 12.0188 13.4892 12.0188 12.9487C12.0188 12.4969 12.1358 12.0896 12.3697 11.7265C12.6118 11.3635 12.9748 11.0731 13.4588 10.8553C13.9428 10.6375 14.5438 10.5286 15.2618 10.5286C15.7619 10.5286 16.254 10.5931 16.738 10.7222C17.222 10.8513 17.6375 11.0368 17.9843 11.2788L17.585 12.2469C17.2301 12.021 16.8509 11.8516 16.4476 11.7386C16.0442 11.6176 15.649 11.5571 15.2618 11.5571C14.5761 11.5571 14.0598 11.6822 13.7129 11.9322C13.3741 12.1823 13.2047 12.505 13.2047 12.9003C13.2047 13.1907 13.3015 13.4287 13.4951 13.6142C13.6887 13.7917 13.9267 13.9329 14.209 14.0377C14.4994 14.1345 14.8907 14.2394 15.3828 14.3523C16.02 14.5056 16.5323 14.6589 16.9195 14.8121C17.3067 14.9654 17.6375 15.1994 17.9117 15.514C18.1941 15.8286 18.3353 16.2521 18.3353 16.7845C18.3353 17.2282 18.2143 17.6356 17.9722 18.0067C17.7302 18.3697 17.3632 18.6601 16.8711 18.8779C16.379 19.0876 15.774 19.1925 15.056 19.1925ZM23.9268 19.1925C23.0717 19.1925 22.3013 19.007 21.6156 18.6359C20.9299 18.2567 20.3894 17.7364 19.9942 17.0749C19.6069 16.4134 19.4133 15.6753 19.4133 14.8606C19.4133 14.0458 19.6069 13.3077 19.9942 12.6462C20.3894 11.9847 20.9299 11.4684 21.6156 11.0973C22.3013 10.7182 23.0717 10.5286 23.9268 10.5286C24.7738 10.5286 25.5402 10.7182 26.2259 11.0973C26.9116 11.4684 27.448 11.9847 27.8352 12.6462C28.2225 13.2996 28.4161 14.0377 28.4161 14.8606C28.4161 15.6834 28.2225 16.4255 27.8352 17.087C27.448 17.7405 26.9116 18.2567 26.2259 18.6359C25.5402 19.007 24.7738 19.1925 23.9268 19.1925ZM23.9268 18.1156C24.548 18.1156 25.1046 17.9744 25.5967 17.6921C26.0968 17.4097 26.4881 17.0225 26.7704 16.5304C27.0608 16.0303 27.206 15.4736 27.206 14.8606C27.206 14.2475 27.0608 13.6949 26.7704 13.2028C26.4881 12.7026 26.0968 12.3114 25.5967 12.029C25.1046 11.7467 24.548 11.6055 23.9268 11.6055C23.3056 11.6055 22.741 11.7467 22.2327 12.029C21.7326 12.3114 21.3373 12.7026 21.0469 13.2028C20.7646 13.6949 20.6234 14.2475 20.6234 14.8606C20.6234 15.4736 20.7646 16.0303 21.0469 16.5304C21.3373 17.0225 21.7326 17.4097 22.2327 17.6921C22.741 17.9744 23.3056 18.1156 23.9268 18.1156ZM33.0244 15.3325L31.4756 16.9055V19.0957H30.2655V10.6254H31.4756V15.3567L36.0737 10.6254H37.4532L33.8352 14.437L37.6831 19.0957H36.2674L33.0244 15.3325ZM47.9117 14.7032C48.4037 14.8404 48.791 15.0905 49.0733 15.4535C49.3556 15.8084 49.4968 16.2602 49.4968 16.8087C49.4968 17.5428 49.2185 18.1075 48.6619 18.5028C48.1133 18.8981 47.3107 19.0957 46.2539 19.0957H42.2123V10.6254H46.0119C46.9799 10.6254 47.7261 10.819 48.2505 11.2062C48.7829 11.5934 49.0491 12.1299 49.0491 12.8156C49.0491 13.2593 48.9442 13.6424 48.7345 13.9651C48.5328 14.2878 48.2585 14.5338 47.9117 14.7032ZM43.4224 11.6055V14.316H45.903C46.5241 14.316 47.0001 14.2031 47.3308 13.9772C47.6696 13.7433 47.8391 13.4045 47.8391 12.9608C47.8391 12.5171 47.6696 12.1823 47.3308 11.9564C47.0001 11.7225 46.5241 11.6055 45.903 11.6055H43.4224ZM46.2055 18.1156C46.8912 18.1156 47.4075 18.0026 47.7543 17.7768C48.1012 17.5509 48.2747 17.1959 48.2747 16.7119C48.2747 15.7681 47.5849 15.2962 46.2055 15.2962H43.4224V18.1156H46.2055ZM53.5364 12.622C54.4237 12.622 55.1014 12.8398 55.5692 13.2754C56.0452 13.711 56.2832 14.3604 56.2832 15.2236V19.0957H55.182V18.2487C54.9884 18.5472 54.7101 18.7771 54.3471 18.9384C53.9922 19.0917 53.5686 19.1683 53.0766 19.1683C52.3586 19.1683 51.7818 18.9949 51.3462 18.648C50.9186 18.3011 50.7049 17.8453 50.7049 17.2806C50.7049 16.716 50.9106 16.2642 51.322 15.9254C51.7334 15.5785 52.3868 15.4051 53.2823 15.4051H55.1215V15.1752C55.1215 14.675 54.9763 14.2918 54.6859 14.0256C54.3955 13.7594 53.968 13.6263 53.4033 13.6263C53.0241 13.6263 52.653 13.6908 52.29 13.8199C51.927 13.9409 51.6205 14.1063 51.3704 14.316L50.8864 13.4448C51.2171 13.1786 51.6124 12.9769 52.0722 12.8398C52.532 12.6946 53.0201 12.622 53.5364 12.622ZM53.2702 18.2729C53.7138 18.2729 54.097 18.1761 54.4197 17.9825C54.7424 17.7808 54.9763 17.4984 55.1215 17.1354V16.24H53.3307C52.3465 16.24 51.8544 16.5707 51.8544 17.2322C51.8544 17.5549 51.9795 17.809 52.2295 17.9946C52.4796 18.1801 52.8265 18.2729 53.2702 18.2729ZM59.5461 13.7594C59.7478 13.3883 60.0463 13.106 60.4416 12.9124C60.8368 12.7188 61.3168 12.622 61.8815 12.622V13.7473C61.817 13.7392 61.7282 13.7352 61.6153 13.7352C60.9861 13.7352 60.49 13.9248 60.1269 14.3039C59.772 14.675 59.5945 15.2074 59.5945 15.9012V19.0957H58.4329V12.6825H59.5461V13.7594ZM69.7796 13.953C70.3362 13.953 70.8323 14.0579 71.268 14.2676C71.7116 14.4774 72.0585 14.7799 72.3086 15.1752C72.5587 15.5624 72.6837 16.0101 72.6837 16.5183C72.6837 17.0507 72.5506 17.5186 72.2844 17.922C72.0262 18.3253 71.6673 18.6399 71.2074 18.8658C70.7557 19.0836 70.2475 19.1925 69.6828 19.1925C68.5454 19.1925 67.6661 18.8255 67.0449 18.0914C66.4318 17.3573 66.1253 16.3166 66.1253 14.9695C66.1253 14.0256 66.2906 13.223 66.6214 12.5615C66.9602 11.8919 67.4281 11.3877 68.025 11.0489C68.6301 10.702 69.3319 10.5286 70.1305 10.5286C70.5419 10.5286 70.9291 10.573 71.2922 10.6617C71.6552 10.7424 71.9698 10.8634 72.236 11.0247L71.7762 11.9685C71.3728 11.7023 70.8323 11.5692 70.1547 11.5692C69.2754 11.5692 68.5857 11.8435 68.0855 12.3921C67.5854 12.9325 67.3353 13.7231 67.3353 14.7637C67.3353 14.8928 67.3393 14.9937 67.3474 15.0663C67.5894 14.7032 67.9202 14.429 68.3396 14.2434C68.7672 14.0498 69.2472 13.953 69.7796 13.953ZM69.6344 18.2124C70.191 18.2124 70.6428 18.0631 70.9896 17.7647C71.3365 17.4662 71.51 17.0669 71.51 16.5667C71.51 16.0666 71.3325 15.6713 70.9775 15.3809C70.6307 15.0824 70.1628 14.9332 69.5739 14.9332C69.1947 14.9332 68.8559 15.0058 68.5575 15.151C68.267 15.2962 68.0371 15.4938 67.8677 15.7439C67.7064 15.994 67.6257 16.2723 67.6257 16.5788C67.6257 16.8773 67.7024 17.1516 67.8556 17.4016C68.017 17.6437 68.2469 17.8413 68.5454 17.9946C68.8519 18.1398 69.2149 18.2124 69.6344 18.2124ZM77.0542 19.1925C76.3847 19.1925 75.7877 19.0231 75.2634 18.6843C74.7471 18.3374 74.3397 17.8373 74.0412 17.1838C73.7427 16.5304 73.5935 15.756 73.5935 14.8606C73.5935 13.9651 73.7427 13.1907 74.0412 12.5373C74.3397 11.8838 74.7471 11.3877 75.2634 11.0489C75.7877 10.702 76.3847 10.5286 77.0542 10.5286C77.7157 10.5286 78.3046 10.702 78.8209 11.0489C79.3452 11.3877 79.7567 11.8838 80.0551 12.5373C80.3536 13.1907 80.5029 13.9651 80.5029 14.8606C80.5029 15.756 80.3536 16.5304 80.0551 17.1838C79.7567 17.8373 79.3452 18.3374 78.8209 18.6843C78.3046 19.0231 77.7157 19.1925 77.0542 19.1925ZM77.0542 18.1156C77.7319 18.1156 78.2723 17.8373 78.6757 17.2806C79.0871 16.724 79.2928 15.9173 79.2928 14.8606C79.2928 13.8038 79.0871 12.9971 78.6757 12.4405C78.2723 11.8838 77.7319 11.6055 77.0542 11.6055C76.3685 11.6055 75.82 11.8838 75.4086 12.4405C75.0052 12.9971 74.8036 13.8038 74.8036 14.8606C74.8036 15.9173 75.0052 16.724 75.4086 17.2806C75.82 17.8373 76.3685 18.1156 77.0542 18.1156ZM85.1251 19.1925C84.4556 19.1925 83.8586 19.0231 83.3343 18.6843C82.818 18.3374 82.4106 17.8373 82.1121 17.1838C81.8136 16.5304 81.6644 15.756 81.6644 14.8606C81.6644 13.9651 81.8136 13.1907 82.1121 12.5373C82.4106 11.8838 82.818 11.3877 83.3343 11.0489C83.8586 10.702 84.4556 10.5286 85.1251 10.5286C85.7866 10.5286 86.3755 10.702 86.8918 11.0489C87.4161 11.3877 87.8276 11.8838 88.126 12.5373C88.4245 13.1907 88.5737 13.9651 88.5737 14.8606C88.5737 15.756 88.4245 16.5304 88.126 17.1838C87.8276 17.8373 87.4161 18.3374 86.8918 18.6843C86.3755 19.0231 85.7866 19.1925 85.1251 19.1925ZM85.1251 18.1156C85.8027 18.1156 86.3432 17.8373 86.7466 17.2806C87.158 16.724 87.3637 15.9173 87.3637 14.8606C87.3637 13.8038 87.158 12.9971 86.7466 12.4405C86.3432 11.8838 85.8027 11.6055 85.1251 11.6055C84.4394 11.6055 83.8909 11.8838 83.4795 12.4405C83.0761 12.9971 82.8744 13.8038 82.8744 14.8606C82.8744 15.9173 83.0761 16.724 83.4795 17.2806C83.8909 17.8373 84.4394 18.1156 85.1251 18.1156ZM93.196 19.1925C92.5265 19.1925 91.9295 19.0231 91.4052 18.6843C90.8889 18.3374 90.4815 17.8373 90.183 17.1838C89.8845 16.5304 89.7353 15.756 89.7353 14.8606C89.7353 13.9651 89.8845 13.1907 90.183 12.5373C90.4815 11.8838 90.8889 11.3877 91.4052 11.0489C91.9295 10.702 92.5265 10.5286 93.196 10.5286C93.8575 10.5286 94.4464 10.702 94.9627 11.0489C95.487 11.3877 95.8985 11.8838 96.1969 12.5373C96.4954 13.1907 96.6446 13.9651 96.6446 14.8606C96.6446 15.756 96.4954 16.5304 96.1969 17.1838C95.8985 17.8373 95.487 18.3374 94.9627 18.6843C94.4464 19.0231 93.8575 19.1925 93.196 19.1925ZM93.196 18.1156C93.8736 18.1156 94.4141 17.8373 94.8175 17.2806C95.2289 16.724 95.4346 15.9173 95.4346 14.8606C95.4346 13.8038 95.2289 12.9971 94.8175 12.4405C94.4141 11.8838 93.8736 11.6055 93.196 11.6055C92.5103 11.6055 91.9618 11.8838 91.5504 12.4405C91.147 12.9971 90.9453 13.8038 90.9453 14.8606C90.9453 15.9173 91.147 16.724 91.5504 17.2806C91.9618 17.8373 92.5103 18.1156 93.196 18.1156Z"
            fill="white" />
        <path
            d="M115.389 76.5229V67.8114H148V75.2651L130.343 88.216H148V96.9276H115.389V89.0545L132.533 76.5229H115.389ZM140.22 52.5887V40.2434H148V61.5332H115.389V40.6627H123.169V52.5887H127.968V41.8739H135.328V52.5887H140.22ZM115.389 -0.816609V-10.4133L148 -0.35075V7.56886L132.3 13.8114L148 19.9607V27.8803L115.389 38.0826V28.4394L134.21 23.1286L115.576 15.3487V12.274L134.21 4.35443L115.389 -0.816609Z"
            fill="#EE4A9A" />
        <path
            d="M54.2436 75.8807V77.2501H53.7707V76.3184H50.3755V72.6056H50.8767V75.8807H53.1425V72.6056H53.6436V75.8807H54.2436ZM58.4476 74.6172H55.3419C55.3701 75.0031 55.5183 75.316 55.7866 75.556C56.0548 75.7913 56.3936 75.909 56.803 75.909C57.0336 75.909 57.2453 75.869 57.4383 75.789C57.6312 75.7043 57.7983 75.5819 57.9394 75.4219L58.2218 75.7466C58.0571 75.9443 57.85 76.0948 57.6006 76.1984C57.3559 76.3019 57.0853 76.3537 56.7889 76.3537C56.4077 76.3537 56.0689 76.2737 55.7724 76.1137C55.4807 75.949 55.2525 75.7231 55.0878 75.436C54.9231 75.149 54.8407 74.8243 54.8407 74.462C54.8407 74.0996 54.9184 73.7749 55.0737 73.4879C55.2336 73.2008 55.4501 72.9773 55.723 72.8173C56.0007 72.6573 56.3113 72.5773 56.6548 72.5773C56.9983 72.5773 57.3065 72.6573 57.5794 72.8173C57.8524 72.9773 58.0665 73.2008 58.2218 73.4879C58.3771 73.7702 58.4547 74.0949 58.4547 74.462L58.4476 74.6172ZM56.6548 73.0079C56.2971 73.0079 55.996 73.1232 55.7513 73.3538C55.5113 73.5796 55.3748 73.8761 55.3419 74.2431H57.9747C57.9418 73.8761 57.803 73.5796 57.5583 73.3538C57.3183 73.1232 57.0171 73.0079 56.6548 73.0079ZM59.5641 72.6056H60.0652V74.2502H62.4016V72.6056H62.9028V76.3184H62.4016V74.6808H60.0652V76.3184H59.5641V72.6056ZM65.6048 72.5773C66.0895 72.5773 66.4613 72.6997 66.7201 72.9444C66.9789 73.1844 67.1083 73.542 67.1083 74.0173V76.3184H66.6283V75.7396C66.5154 75.9325 66.3483 76.0831 66.1271 76.1913C65.9107 76.2995 65.6519 76.3537 65.3507 76.3537C64.9366 76.3537 64.6072 76.2548 64.3625 76.0572C64.1178 75.8596 63.9955 75.5984 63.9955 75.2737C63.9955 74.9584 64.1084 74.7043 64.3343 74.5114C64.5648 74.3184 64.9295 74.222 65.4283 74.222H66.6071V73.9961C66.6071 73.6761 66.5177 73.4338 66.3389 73.2691C66.1601 73.0997 65.8989 73.0149 65.5554 73.0149C65.3201 73.0149 65.0942 73.0549 64.8778 73.1349C64.6613 73.2102 64.4754 73.3161 64.3202 73.4526L64.0943 73.0785C64.2825 72.9185 64.5084 72.7961 64.7719 72.7114C65.0354 72.622 65.3131 72.5773 65.6048 72.5773ZM65.4283 75.9584C65.7107 75.9584 65.953 75.8948 66.1554 75.7678C66.3577 75.636 66.5083 75.4478 66.6071 75.2031V74.5961H65.4425C64.8072 74.5961 64.4896 74.8172 64.4896 75.2596C64.4896 75.476 64.5719 75.6478 64.7366 75.7748C64.9013 75.8972 65.1319 75.9584 65.4283 75.9584ZM72.0897 72.6973C72.4332 72.6973 72.7391 72.775 73.0073 72.9302C73.2802 73.0808 73.492 73.2949 73.6426 73.5726C73.7932 73.8455 73.8685 74.1584 73.8685 74.5114C73.8685 74.8737 73.7885 75.196 73.6285 75.4784C73.4732 75.756 73.2544 75.9725 72.972 76.1278C72.6897 76.2831 72.365 76.3607 71.9979 76.3607C71.3815 76.3607 70.9039 76.1442 70.5651 75.7113C70.2262 75.2784 70.0568 74.6808 70.0568 73.9184C70.0568 73.1232 70.2074 72.5138 70.5086 72.0903C70.8145 71.6668 71.2897 71.3797 71.9344 71.2291L73.6002 70.848L73.6849 71.3068L72.1179 71.6668C71.5862 71.7844 71.1956 71.9938 70.9462 72.295C70.6968 72.5914 70.5603 73.0314 70.5368 73.6149C70.6874 73.3279 70.8968 73.1044 71.165 72.9444C71.4333 72.7797 71.7415 72.6973 72.0897 72.6973ZM72.0121 75.9443C72.2709 75.9443 72.5015 75.8854 72.7038 75.7678C72.9109 75.6454 73.0708 75.476 73.1838 75.2596C73.3014 75.0431 73.3602 74.7984 73.3602 74.5255C73.3602 74.2526 73.3038 74.0126 73.1908 73.8055C73.0779 73.5985 72.9179 73.4385 72.7109 73.3255C72.5085 73.2079 72.2756 73.1491 72.0121 73.1491C71.7485 73.1491 71.5133 73.2079 71.3062 73.3255C71.1039 73.4385 70.9439 73.5985 70.8262 73.8055C70.7133 74.0126 70.6568 74.2526 70.6568 74.5255C70.6568 74.7984 70.7133 75.0431 70.8262 75.2596C70.9439 75.476 71.1062 75.6454 71.3133 75.7678C71.5203 75.8854 71.7532 75.9443 72.0121 75.9443ZM78.1896 74.6172H75.0838C75.112 75.0031 75.2603 75.316 75.5285 75.556C75.7967 75.7913 76.1355 75.909 76.5449 75.909C76.7755 75.909 76.9873 75.869 77.1802 75.789C77.3731 75.7043 77.5402 75.5819 77.6814 75.4219L77.9637 75.7466C77.799 75.9443 77.592 76.0948 77.3425 76.1984C77.0979 76.3019 76.8273 76.3537 76.5308 76.3537C76.1496 76.3537 75.8108 76.2737 75.5144 76.1137C75.2226 75.949 74.9944 75.7231 74.8297 75.436C74.665 75.149 74.5826 74.8243 74.5826 74.462C74.5826 74.0996 74.6603 73.7749 74.8156 73.4879C74.9756 73.2008 75.192 72.9773 75.465 72.8173C75.7426 72.6573 76.0532 72.5773 76.3967 72.5773C76.7402 72.5773 77.0484 72.6573 77.3214 72.8173C77.5943 72.9773 77.8084 73.2008 77.9637 73.4879C78.119 73.7702 78.1966 74.0949 78.1966 74.462L78.1896 74.6172ZM76.3967 73.0079C76.0391 73.0079 75.7379 73.1232 75.4932 73.3538C75.2532 73.5796 75.1167 73.8761 75.0838 74.2431H77.7167C77.6837 73.8761 77.5449 73.5796 77.3002 73.3538C77.0602 73.1232 76.759 73.0079 76.3967 73.0079ZM81.0096 74.3843C81.2731 74.4455 81.4754 74.5514 81.6166 74.7019C81.7625 74.8525 81.8354 75.0361 81.8354 75.2525C81.8354 75.469 81.7601 75.6619 81.6096 75.8313C81.4637 76.0007 81.2637 76.1325 81.0096 76.2266C80.7555 76.316 80.4755 76.3607 80.1696 76.3607C79.9014 76.3607 79.6379 76.3231 79.3791 76.2478C79.1202 76.1678 78.8944 76.0525 78.7014 75.9019L78.8708 75.5278C79.0402 75.6549 79.2379 75.7537 79.4638 75.8243C79.6896 75.8948 79.9179 75.9301 80.1484 75.9301C80.492 75.9301 80.7719 75.8666 80.9884 75.7396C81.2096 75.6078 81.3202 75.4313 81.3202 75.2102C81.3202 75.0125 81.2308 74.8596 81.0519 74.7514C80.8731 74.6384 80.6284 74.582 80.3178 74.582H79.6826V74.2149H80.2896C80.5672 74.2149 80.7908 74.1631 80.9602 74.0596C81.1296 73.9514 81.2143 73.8079 81.2143 73.629C81.2143 73.4314 81.1178 73.2761 80.9249 73.1632C80.7367 73.0502 80.4896 72.9938 80.1837 72.9938C79.7837 72.9938 79.3885 73.0949 78.9979 73.2973L78.8567 72.9091C79.2991 72.6785 79.7579 72.5632 80.2331 72.5632C80.5155 72.5632 80.7696 72.6056 80.9955 72.6903C81.226 72.7703 81.4049 72.8855 81.5319 73.0361C81.6637 73.1867 81.7296 73.3608 81.7296 73.5585C81.7296 73.7467 81.6637 73.9137 81.5319 74.0596C81.4049 74.2055 81.2308 74.3137 81.0096 74.3843ZM86.7334 72.5773C87.0816 72.5773 87.3969 72.6573 87.6792 72.8173C87.9616 72.9726 88.1827 73.1938 88.3427 73.4808C88.5027 73.7679 88.5827 74.0949 88.5827 74.462C88.5827 74.8337 88.5027 75.1631 88.3427 75.4502C88.1827 75.7372 87.9616 75.9607 87.6792 76.1207C87.4016 76.276 87.0863 76.3537 86.7334 76.3537C86.4322 76.3537 86.1593 76.2925 85.9146 76.1701C85.6746 76.0431 85.4769 75.8596 85.3217 75.6196V77.6877H84.8205V72.6056H85.3005V73.3396C85.4511 73.0949 85.6487 72.9067 85.8934 72.775C86.1428 72.6432 86.4228 72.5773 86.7334 72.5773ZM86.6981 75.909C86.9569 75.909 87.1922 75.8501 87.4039 75.7325C87.6157 75.6101 87.7804 75.4384 87.898 75.2172C88.0204 74.9961 88.0816 74.7443 88.0816 74.462C88.0816 74.1796 88.0204 73.9302 87.898 73.7137C87.7804 73.4926 87.6157 73.3208 87.4039 73.1985C87.1922 73.0761 86.9569 73.0149 86.6981 73.0149C86.4346 73.0149 86.1969 73.0761 85.9852 73.1985C85.7781 73.3208 85.6134 73.4926 85.4911 73.7137C85.3734 73.9302 85.3146 74.1796 85.3146 74.462C85.3146 74.7443 85.3734 74.9961 85.4911 75.2172C85.6134 75.4384 85.7781 75.6101 85.9852 75.7325C86.1969 75.8501 86.4346 75.909 86.6981 75.909ZM92.9064 74.6172H89.8006C89.8289 75.0031 89.9771 75.316 90.2453 75.556C90.5136 75.7913 90.8524 75.909 91.2618 75.909C91.4923 75.909 91.7041 75.869 91.897 75.789C92.09 75.7043 92.257 75.5819 92.3982 75.4219L92.6805 75.7466C92.5158 75.9443 92.3088 76.0948 92.0594 76.1984C91.8147 76.3019 91.5441 76.3537 91.2476 76.3537C90.8665 76.3537 90.5277 76.2737 90.2312 76.1137C89.9395 75.949 89.7112 75.7231 89.5465 75.436C89.3818 75.149 89.2995 74.8243 89.2995 74.462C89.2995 74.0996 89.3771 73.7749 89.5324 73.4879C89.6924 73.2008 89.9089 72.9773 90.1818 72.8173C90.4594 72.6573 90.77 72.5773 91.1135 72.5773C91.4571 72.5773 91.7653 72.6573 92.0382 72.8173C92.3111 72.9773 92.5252 73.2008 92.6805 73.4879C92.8358 73.7702 92.9135 74.0949 92.9135 74.462L92.9064 74.6172ZM91.1135 73.0079C90.7559 73.0079 90.4547 73.1232 90.21 73.3538C89.97 73.5796 89.8336 73.8761 89.8006 74.2431H92.4335C92.4005 73.8761 92.2617 73.5796 92.017 73.3538C91.777 73.1232 91.4759 73.0079 91.1135 73.0079ZM96.6486 73.0502H94.524V76.3184H94.0228V72.6056H96.6486V73.0502ZM97.3729 72.6056H97.874V75.556L100.352 72.6056H100.796V76.3184H100.295V73.3679L97.8246 76.3184H97.3729V72.6056ZM103.785 76.3537C103.418 76.3537 103.089 76.2737 102.797 76.1137C102.51 75.9537 102.284 75.7301 102.12 75.4431C101.955 75.1513 101.873 74.8243 101.873 74.462C101.873 74.0996 101.955 73.7749 102.12 73.4879C102.284 73.2008 102.51 72.9773 102.797 72.8173C103.089 72.6573 103.418 72.5773 103.785 72.5773C104.105 72.5773 104.39 72.6408 104.64 72.7679C104.894 72.8902 105.094 73.0714 105.239 73.3114L104.865 73.5655C104.743 73.382 104.588 73.2455 104.4 73.1561C104.211 73.062 104.007 73.0149 103.785 73.0149C103.517 73.0149 103.275 73.0761 103.058 73.1985C102.847 73.3161 102.68 73.4855 102.557 73.7067C102.44 73.9279 102.381 74.1796 102.381 74.462C102.381 74.749 102.44 75.0031 102.557 75.2243C102.68 75.4407 102.847 75.6101 103.058 75.7325C103.275 75.8501 103.517 75.909 103.785 75.909C104.007 75.909 104.211 75.8643 104.4 75.7748C104.588 75.6854 104.743 75.549 104.865 75.3655L105.239 75.6196C105.094 75.8596 104.894 76.0431 104.64 76.1701C104.385 76.2925 104.101 76.3537 103.785 76.3537ZM108.753 73.0502H107.348V76.3184H106.847V73.0502H105.442V72.6056H108.753V73.0502ZM111.39 72.5773C111.738 72.5773 112.054 72.6573 112.336 72.8173C112.618 72.9726 112.839 73.1938 112.999 73.4808C113.159 73.7679 113.239 74.0949 113.239 74.462C113.239 74.8337 113.159 75.1631 112.999 75.4502C112.839 75.7372 112.618 75.9607 112.336 76.1207C112.058 76.276 111.743 76.3537 111.39 76.3537C111.089 76.3537 110.816 76.2925 110.571 76.1701C110.331 76.0431 110.134 75.8596 109.978 75.6196V77.6877H109.477V72.6056H109.957V73.3396C110.108 73.0949 110.305 72.9067 110.55 72.775C110.8 72.6432 111.08 72.5773 111.39 72.5773ZM111.355 75.909C111.614 75.909 111.849 75.8501 112.061 75.7325C112.272 75.6101 112.437 75.4384 112.555 75.2172C112.677 74.9961 112.738 74.7443 112.738 74.462C112.738 74.1796 112.677 73.9302 112.555 73.7137C112.437 73.4926 112.272 73.3208 112.061 73.1985C111.849 73.0761 111.614 73.0149 111.355 73.0149C111.091 73.0149 110.854 73.0761 110.642 73.1985C110.435 73.3208 110.27 73.4926 110.148 73.7137C110.03 73.9302 109.971 74.1796 109.971 74.462C109.971 74.7443 110.03 74.9961 110.148 75.2172C110.27 75.4384 110.435 75.6101 110.642 75.7325C110.854 75.8501 111.091 75.909 111.355 75.909ZM115.573 72.5773C116.058 72.5773 116.43 72.6997 116.688 72.9444C116.947 73.1844 117.077 73.542 117.077 74.0173V76.3184H116.597V75.7396C116.484 75.9325 116.317 76.0831 116.095 76.1913C115.879 76.2995 115.62 76.3537 115.319 76.3537C114.905 76.3537 114.576 76.2548 114.331 76.0572C114.086 75.8596 113.964 75.5984 113.964 75.2737C113.964 74.9584 114.077 74.7043 114.303 74.5114C114.533 74.3184 114.898 74.222 115.397 74.222H116.575V73.9961C116.575 73.6761 116.486 73.4338 116.307 73.2691C116.128 73.0997 115.867 73.0149 115.524 73.0149C115.288 73.0149 115.063 73.0549 114.846 73.1349C114.63 73.2102 114.444 73.3161 114.288 73.4526L114.063 73.0785C114.251 72.9185 114.477 72.7961 114.74 72.7114C115.004 72.622 115.281 72.5773 115.573 72.5773ZM115.397 75.9584C115.679 75.9584 115.921 75.8948 116.124 75.7678C116.326 75.636 116.477 75.4478 116.575 75.2031V74.5961H115.411C114.776 74.5961 114.458 74.8172 114.458 75.2596C114.458 75.476 114.54 75.6478 114.705 75.7748C114.87 75.8972 115.1 75.9584 115.397 75.9584ZM122.279 75.8807V77.2501H121.806V76.3184H118.411V72.6056H118.912V75.8807H121.178V72.6056H121.679V75.8807H122.279ZM123.236 72.6056H123.737V75.556L126.215 72.6056H126.659V76.3184H126.158V73.3679L123.688 76.3184H123.236V72.6056ZM128.096 72.6056H128.597V75.556L131.074 72.6056H131.519V76.3184H131.018V73.3679L128.547 76.3184H128.096V72.6056Z"
            fill="#F8BFD8" />
        <path
            d="M52.7401 81.4668C53.2436 81.5844 53.4954 81.8879 53.4954 82.3773C53.4954 82.702 53.3754 82.9514 53.1354 83.1256C52.8954 83.2997 52.5378 83.3867 52.0625 83.3867H50.3755V79.6739H52.0131C52.4366 79.6739 52.7684 79.7563 53.0084 79.921C53.2483 80.0857 53.3683 80.3209 53.3683 80.6268C53.3683 80.8292 53.3119 81.0033 53.1989 81.1492C53.0907 81.2903 52.9378 81.3962 52.7401 81.4668ZM50.8626 81.3256H51.9778C52.2649 81.3256 52.4837 81.2715 52.6343 81.1633C52.7895 81.055 52.8672 80.8974 52.8672 80.6903C52.8672 80.4833 52.7895 80.328 52.6343 80.2245C52.4837 80.121 52.2649 80.0692 51.9778 80.0692H50.8626V81.3256ZM52.0413 82.9914C52.3613 82.9914 52.6013 82.9397 52.7613 82.8362C52.9213 82.7326 53.0013 82.5703 53.0013 82.3491C53.0013 82.1279 52.9284 81.9656 52.7825 81.8621C52.6366 81.7538 52.406 81.6997 52.0907 81.6997H50.8626V82.9914H52.0413ZM59.8489 79.6739V83.3867H59.3478V80.1186H57.0185V83.3867H56.5173V79.6739H59.8489ZM63.1864 79.6457C63.5346 79.6457 63.8499 79.7257 64.1323 79.8857C64.4146 80.041 64.6358 80.2621 64.7958 80.5492C64.9558 80.8362 65.0358 81.1633 65.0358 81.5303C65.0358 81.9021 64.9558 82.2315 64.7958 82.5185C64.6358 82.8056 64.4146 83.0291 64.1323 83.1891C63.8546 83.3444 63.5394 83.422 63.1864 83.422C62.8853 83.422 62.6123 83.3608 62.3676 83.2385C62.1276 83.1114 61.93 82.9279 61.7747 82.6879V84.7561H61.2736V79.6739H61.7535V80.408C61.9041 80.1633 62.1018 79.9751 62.3465 79.8433C62.5959 79.7116 62.8758 79.6457 63.1864 79.6457ZM63.1511 82.9773C63.4099 82.9773 63.6452 82.9185 63.857 82.8009C64.0687 82.6785 64.2334 82.5068 64.3511 82.2856C64.4734 82.0644 64.5346 81.8127 64.5346 81.5303C64.5346 81.248 64.4734 80.9986 64.3511 80.7821C64.2334 80.5609 64.0687 80.3892 63.857 80.2668C63.6452 80.1445 63.4099 80.0833 63.1511 80.0833C62.8876 80.0833 62.65 80.1445 62.4382 80.2668C62.2312 80.3892 62.0665 80.5609 61.9441 80.7821C61.8265 80.9986 61.7677 81.248 61.7677 81.5303C61.7677 81.8127 61.8265 82.0644 61.9441 82.2856C62.0665 82.5068 62.2312 82.6785 62.4382 82.8009C62.65 82.9185 62.8876 82.9773 63.1511 82.9773ZM66.1125 79.6739H66.6137V82.6244L69.0912 79.6739H69.5359V83.3867H69.0348V80.4362L66.5643 83.3867H66.1125V79.6739ZM74.0074 79.6739V83.3867H73.5062V80.1186H71.7275L71.678 81.0362C71.6404 81.808 71.551 82.4009 71.4098 82.815C71.2687 83.2291 71.0169 83.4361 70.6546 83.4361C70.5557 83.4361 70.4357 83.4173 70.2946 83.3797L70.3299 82.9491C70.4146 82.9679 70.4734 82.9773 70.5063 82.9773C70.6993 82.9773 70.8451 82.8879 70.944 82.7091C71.0428 82.5303 71.1087 82.3091 71.1416 82.0456C71.1745 81.7821 71.2028 81.4338 71.2263 81.0009L71.2898 79.6739H74.0074ZM76.9638 83.422C76.6061 83.422 76.2838 83.342 75.9967 83.182C75.7097 83.0173 75.4838 82.7914 75.3191 82.5044C75.1544 82.2173 75.0721 81.8927 75.0721 81.5303C75.0721 81.168 75.1544 80.8433 75.3191 80.5562C75.4838 80.2692 75.7097 80.0457 75.9967 79.8857C76.2838 79.7257 76.6061 79.6457 76.9638 79.6457C77.3214 79.6457 77.6437 79.7257 77.9308 79.8857C78.2178 80.0457 78.4413 80.2692 78.6013 80.5562C78.766 80.8433 78.8484 81.168 78.8484 81.5303C78.8484 81.8927 78.766 82.2173 78.6013 82.5044C78.4413 82.7914 78.2178 83.0173 77.9308 83.182C77.6437 83.342 77.3214 83.422 76.9638 83.422ZM76.9638 82.9773C77.2273 82.9773 77.4626 82.9185 77.6696 82.8009C77.8814 82.6785 78.0461 82.5068 78.1637 82.2856C78.2814 82.0644 78.3402 81.8127 78.3402 81.5303C78.3402 81.248 78.2814 80.9962 78.1637 80.775C78.0461 80.5539 77.8814 80.3845 77.6696 80.2668C77.4626 80.1445 77.2273 80.0833 76.9638 80.0833C76.7002 80.0833 76.4626 80.1445 76.2508 80.2668C76.0438 80.3845 75.8791 80.5539 75.7567 80.775C75.6391 80.9962 75.5803 81.248 75.5803 81.5303C75.5803 81.8127 75.6391 82.0644 75.7567 82.2856C75.8791 82.5068 76.0438 82.6785 76.2508 82.8009C76.4626 82.9185 76.7002 82.9773 76.9638 82.9773ZM83.0425 81.735H82.2378V83.3867H81.7367V81.735H80.932L79.7956 83.3867H79.1956L80.5297 81.4738L79.3015 79.6739H79.845L80.932 81.3044H81.7367V79.6739H82.2378V81.3044H83.0425L84.1366 79.6739H84.6801L83.4519 81.4809L84.786 83.3867H84.186L83.0425 81.735ZM88.7361 81.6856H85.6303C85.6585 82.0715 85.8068 82.3844 86.075 82.6244C86.3432 82.8597 86.682 82.9773 87.0914 82.9773C87.322 82.9773 87.5338 82.9373 87.7267 82.8573C87.9196 82.7726 88.0867 82.6503 88.2279 82.4903L88.5102 82.815C88.3455 83.0126 88.1384 83.1632 87.889 83.2667C87.6443 83.3702 87.3738 83.422 87.0773 83.422C86.6961 83.422 86.3573 83.342 86.0609 83.182C85.7691 83.0173 85.5409 82.7914 85.3762 82.5044C85.2115 82.2173 85.1291 81.8927 85.1291 81.5303C85.1291 81.168 85.2068 80.8433 85.3621 80.5562C85.5221 80.2692 85.7385 80.0457 86.0115 79.8857C86.2891 79.7257 86.5997 79.6457 86.9432 79.6457C87.2867 79.6457 87.5949 79.7257 87.8679 79.8857C88.1408 80.0457 88.3549 80.2692 88.5102 80.5562C88.6655 80.8386 88.7431 81.1633 88.7431 81.5303L88.7361 81.6856ZM86.9432 80.0763C86.5856 80.0763 86.2844 80.1915 86.0397 80.4221C85.7997 80.648 85.6632 80.9445 85.6303 81.3115H88.2631C88.2302 80.9445 88.0914 80.648 87.8467 80.4221C87.6067 80.1915 87.3055 80.0763 86.9432 80.0763ZM89.8525 79.6739H90.3536V81.3186H92.69V79.6739H93.1912V83.3867H92.69V81.7491H90.3536V83.3867H89.8525V79.6739ZM94.6156 79.6739H95.1168V82.6244L97.5943 79.6739H98.039V83.3867H97.5379V80.4362L95.0674 83.3867H94.6156V79.6739ZM99.4753 79.6739H99.9764V82.6244L102.454 79.6739H102.899V83.3867H102.398V80.4362L99.927 83.3867H99.4753V79.6739Z"
            fill="#F8BFD8" />
    </g>
    <defs>
        <linearGradient id="paint0_linear_2202_916" x1="2.21067" y1="95.8378" x2="130.639" y2="2.66481"
            gradientUnits="userSpaceOnUse">
            <stop stop-color="#DD4C9B" />
            <stop offset="1" stop-color="#F6989A" />
        </linearGradient>
    </defs>
</svg>