<svg width="158" height="130" viewBox="0 0 158 130" fill="none" xmlns="http://www.w3.org/2000/svg">
<g clip-path="url(#clip0_226_1337)">
<rect x="1" y="1" width="155.91" height="127.56" fill="#EDE7F3"/>
<path d="M69.7495 -2.18996C77.5695 3.92004 77.1595 9.02004 90.9995 19.5C106.64 31.34 109.31 26.4701 122.49 36.47C137.79 48.09 137.46 57.15 150.62 61.54C180.325 71.4787 165.569 -2.18994 165.569 -2.18994L65.6295 -8.45996C65.2495 -5.60996 68.7195 -2.98996 69.7495 -2.18996Z" fill="#B0A9CB"/>
<path d="M-0.999592 58.86C12.2104 52.6 31.3904 64.2 41.7204 76.75C44.6404 80.29 43.5404 79.9001 47.5304 85.1601C50.2304 88.7201 57.5704 97.94 73.5204 109.62C84.2104 117.45 89.1105 119.3 107.501 132.5C107.501 132.5 14.8604 133.165 -3 132.5L-2.99955 72.5C-2.99955 72.5 -2.78959 59.71 -0.999592 58.86Z" fill="#B0A9CB"/>
<path d="M78.9502 -1.62C90.5502 9.25 101.16 17.34 109.34 23.05C111.54 24.59 130.17 37.45 145.46 41.24C148.03 41.88 153.32 43.15 160.26 42.7" stroke="#77709A" stroke-width="2" stroke-miterlimit="10"/>
<path d="M-0.919922 58.3101C30.6501 61.6001 47.8501 72.6301 57.7801 82.3101C70.5201 94.7301 69.2101 102.92 83.3701 110.74C97.0501 118.3 109.63 116.94 124.31 129.54" stroke="#77709A" stroke-width="2" stroke-miterlimit="10"/>
<path d="M137.765 25H1V5H137.774C142.87 5 147 9.47686 147 15C146.99 20.5231 142.86 25 137.765 25Z" fill="white"/>
</g>
<rect x="1" y="1" width="155.91" height="127.56" stroke="black" stroke-dasharray="5 5"/>
<defs>
<clipPath id="clip0_226_1337">
<rect x="1" y="1" width="155.91" height="127.56" fill="white"/>
</clipPath>
</defs>
</svg>
