<svg width="158" height="130" viewBox="0 0 158 130" fill="none" xmlns="http://www.w3.org/2000/svg">
<g clip-path="url(#clip0_226_1337)">
<rect x="1" y="1" width="155.91" height="127.56" fill="#EDE7F3"/>
<path d="M69.7495 -2.18996C77.5695 3.92004 77.1595 9.02004 90.9995 19.5C106.64 31.34 109.31 26.4701 122.49 36.47C137.79 48.09 137.46 57.15 150.62 61.54C180.325 71.4787 165.569 -2.18994 165.569 -2.18994L65.6295 -8.45996C65.2495 -5.60996 68.7195 -2.98996 69.7495 -2.18996Z" fill="#B0A9CB"/>
<path d="M-0.999592 58.86C12.2104 52.6 31.3904 64.2 41.7204 76.75C44.6404 80.29 43.5404 79.9001 47.5304 85.1601C50.2304 88.7201 57.5704 97.94 73.5204 109.62C84.2104 117.45 89.1105 119.3 107.501 132.5C107.501 132.5 14.8604 133.165 -3 132.5L-2.99955 72.5C-2.99955 72.5 -2.78959 59.71 -0.999592 58.86Z" fill="#B0A9CB"/>
<path d="M78.9502 -1.62C90.5502 9.25 101.16 17.34 109.34 23.05C111.54 24.59 130.17 37.45 145.46 41.24C148.03 41.88 153.32 43.15 160.26 42.7" stroke="#77709A" stroke-width="2" stroke-miterlimit="10"/>
<path d="M-0.919922 58.3101C30.6501 61.6001 47.8501 72.6301 57.7801 82.3101C70.5201 94.7301 69.2101 102.92 83.3701 110.74C97.0501 118.3 109.63 116.94 124.31 129.54" stroke="#77709A" stroke-width="2" stroke-miterlimit="10"/>
<path d="M137.765 25H1V5H137.774C142.87 5 147 9.47686 147 15C146.99 20.5231 142.86 25 137.765 25Z" fill="white"/>
<path d="M157.5 119H78.3385C72.0786 119 67 111.172 67 101.5C67 91.8383 72.0721 84 78.3385 84H157.5V119Z" fill="white"/>
<path d="M116.316 88.1923H117.184V91.7665H118.865V88.1923H119.732V91.7665H120.09V93.4247H119.369V92.4872H116.316V88.1923ZM120.685 92.4872V88.1923H123.869V88.9188H121.552V89.871H123.708V90.5946H121.552V91.7635H123.951V92.4872H120.685ZM124.689 92.4872V88.1923H125.557V89.8827H127.256V88.1923H128.123V92.4872H127.256V90.6093H125.557V92.4872H124.689ZM132.896 92.4872H131.952L131.577 91.5116H129.86L129.506 92.4872H128.586L130.259 88.1923H131.176L132.896 92.4872ZM131.299 90.788L130.707 89.1942L130.127 90.788H131.299ZM135.046 88.1923H138.257V88.913H135.913V89.9091H137.073C137.394 89.9091 137.659 89.9481 137.87 90.0262C138.081 90.1044 138.261 90.2489 138.409 90.4598C138.56 90.6708 138.635 90.9178 138.635 91.201C138.635 91.4921 138.56 91.7411 138.409 91.9481C138.259 92.1552 138.087 92.2968 137.894 92.3729C137.702 92.4491 137.429 92.4872 137.073 92.4872H135.046V88.1923ZM135.913 91.7665H136.757C137.026 91.7665 137.216 91.7538 137.325 91.7284C137.435 91.701 137.529 91.6405 137.609 91.5468C137.691 91.453 137.732 91.3378 137.732 91.201C137.732 91.0018 137.661 90.8573 137.519 90.7675C137.378 90.6757 137.137 90.6298 136.795 90.6298H135.913V91.7665ZM139.341 92.4872V88.1923H142.525V88.9188H140.208V89.871H142.364V90.5946H140.208V91.7635H142.607V92.4872H139.341ZM143.955 89.3641L143.111 89.1678C143.293 88.4686 143.81 88.119 144.661 88.119C145.165 88.119 145.545 88.2303 145.801 88.453C146.059 88.6737 146.188 88.9335 146.188 89.2323C146.188 89.4374 146.129 89.6229 146.012 89.7889C145.895 89.953 145.719 90.0975 145.484 90.2225C145.77 90.3202 145.983 90.4589 146.126 90.6385C146.269 90.8163 146.34 91.036 146.34 91.2977C146.34 91.6747 146.201 91.9794 145.924 92.2118C145.648 92.4442 145.235 92.5604 144.685 92.5604C144.235 92.5604 143.881 92.4862 143.621 92.3378C143.361 92.1874 143.166 91.9071 143.035 91.4969L143.829 91.2362C143.911 91.494 144.02 91.661 144.154 91.7372C144.291 91.8134 144.459 91.8514 144.658 91.8514C144.932 91.8514 145.131 91.7928 145.256 91.6757C145.381 91.5565 145.443 91.4208 145.443 91.2684C145.443 91.0927 145.372 90.951 145.229 90.8436C145.089 90.7362 144.876 90.6825 144.591 90.6825H144.395V90.035H144.494C144.76 90.035 144.963 89.9755 145.104 89.8563C145.244 89.7372 145.314 89.579 145.314 89.3817C145.314 89.2255 145.257 89.0936 145.142 88.9862C145.028 88.8788 144.865 88.8251 144.652 88.8251C144.289 88.8251 144.057 89.0048 143.955 89.3641Z" fill="#E71B84"/>
<path d="M76.582 99.4872V95.1923H77.9736C78.501 95.1923 78.8447 95.2137 79.0049 95.2567C79.251 95.3212 79.457 95.4618 79.623 95.6786C79.7891 95.8934 79.8721 96.1718 79.8721 96.5135C79.8721 96.7772 79.8242 96.9989 79.7285 97.1786C79.6328 97.3583 79.5107 97.4999 79.3623 97.6034C79.2158 97.705 79.0664 97.7723 78.9141 97.8055C78.707 97.8466 78.4072 97.8671 78.0146 97.8671H77.4492V99.4872H76.582ZM77.4492 95.9188V97.1376H77.9238C78.2656 97.1376 78.4941 97.1151 78.6094 97.0702C78.7246 97.0253 78.8145 96.955 78.8789 96.8593C78.9453 96.7635 78.9785 96.6522 78.9785 96.5253C78.9785 96.369 78.9326 96.2401 78.8408 96.1385C78.749 96.037 78.6328 95.9735 78.4922 95.9481C78.3887 95.9286 78.1807 95.9188 77.8682 95.9188H77.4492ZM80.584 99.4872V95.1923H83.7686V95.9188H81.4512V96.871H83.6074V97.5946H81.4512V98.7635H83.8506V99.4872H80.584ZM84.6299 95.1923H87.5391V95.913H85.4971V99.4872H84.6299V95.1923ZM88.002 95.1923H88.8135V98.0516L90.5537 95.1923H91.418V99.4872H90.6064V96.6835L88.8691 99.4872H88.002V95.1923ZM95.0508 97.9081L95.8916 98.1747C95.7627 98.6434 95.5479 98.9921 95.2471 99.2206C94.9482 99.4471 94.5684 99.5604 94.1074 99.5604C93.5371 99.5604 93.0684 99.3661 92.7012 98.9774C92.334 98.5868 92.1504 98.0536 92.1504 97.3778C92.1504 96.663 92.335 96.1083 92.7041 95.7137C93.0732 95.3173 93.5586 95.119 94.1602 95.119C94.6855 95.119 95.1123 95.2743 95.4404 95.5848C95.6357 95.7684 95.7822 96.0321 95.8799 96.3759L95.0215 96.5809C94.9707 96.3583 94.8643 96.1825 94.7021 96.0536C94.542 95.9247 94.3467 95.8602 94.1162 95.8602C93.7979 95.8602 93.5391 95.9745 93.3398 96.203C93.1426 96.4315 93.0439 96.8016 93.0439 97.3134C93.0439 97.8563 93.1416 98.243 93.3369 98.4735C93.5322 98.704 93.7861 98.8192 94.0986 98.8192C94.3291 98.8192 94.5273 98.746 94.6934 98.5995C94.8594 98.453 94.9785 98.2225 95.0508 97.9081ZM97.4531 99.4872V95.9188H96.1787V95.1923H99.5918V95.9188H98.3203V99.4872H97.4531ZM100.154 99.4872V95.1923H101.546C102.073 95.1923 102.417 95.2137 102.577 95.2567C102.823 95.3212 103.029 95.4618 103.195 95.6786C103.361 95.8934 103.444 96.1718 103.444 96.5135C103.444 96.7772 103.396 96.9989 103.301 97.1786C103.205 97.3583 103.083 97.4999 102.935 97.6034C102.788 97.705 102.639 97.7723 102.486 97.8055C102.279 97.8466 101.979 97.8671 101.587 97.8671H101.021V99.4872H100.154ZM101.021 95.9188V97.1376H101.496C101.838 97.1376 102.066 97.1151 102.182 97.0702C102.297 97.0253 102.387 96.955 102.451 96.8593C102.518 96.7635 102.551 96.6522 102.551 96.5253C102.551 96.369 102.505 96.2401 102.413 96.1385C102.321 96.037 102.205 95.9735 102.064 95.9481C101.961 95.9286 101.753 95.9188 101.44 95.9188H101.021ZM107.502 99.4872H106.559L106.184 98.5116H104.467L104.112 99.4872H103.192L104.865 95.1923H105.782L107.502 99.4872ZM105.905 97.788L105.313 96.1942L104.733 97.788H105.905ZM107.979 95.1923H108.847V98.7665H110.528V95.1923H111.396V98.7665H111.753V100.425H111.032V99.4872H107.979V95.1923ZM112.359 95.1923H113.171V98.0516L114.911 95.1923H115.775V99.4872H114.964V96.6835L113.227 99.4872H112.359V95.1923ZM116.672 95.1923H117.483V98.0516L119.224 95.1923H120.088V99.4872H119.276V96.6835L117.539 99.4872H116.672V95.1923ZM123.738 99.4872L122.203 95.1923H123.144L124.23 98.371L125.282 95.1923H126.202L124.664 99.4872H123.738ZM126.088 99.4872V98.6639H126.911V99.4872H126.088ZM129.214 98.0897L130.058 98.0077C130.108 98.2909 130.211 98.4989 130.365 98.6317C130.521 98.7645 130.731 98.8309 130.995 98.8309C131.274 98.8309 131.484 98.7723 131.625 98.6552C131.768 98.536 131.839 98.3973 131.839 98.2391C131.839 98.1376 131.809 98.0516 131.748 97.9813C131.689 97.9091 131.586 97.8466 131.438 97.7938C131.336 97.7587 131.104 97.6962 130.743 97.6063C130.278 97.4911 129.952 97.3495 129.765 97.1815C129.501 96.9452 129.369 96.6571 129.369 96.3173C129.369 96.0985 129.431 95.8944 129.554 95.705C129.679 95.5135 129.857 95.368 130.09 95.2684C130.324 95.1688 130.606 95.119 130.937 95.119C131.476 95.119 131.881 95.2372 132.152 95.4735C132.426 95.7098 132.569 96.0253 132.583 96.4198L131.716 96.4579C131.679 96.2372 131.599 96.079 131.476 95.9833C131.354 95.8856 131.172 95.8368 130.928 95.8368C130.676 95.8368 130.479 95.8885 130.336 95.9921C130.244 96.0585 130.198 96.1473 130.198 96.2587C130.198 96.3602 130.241 96.4471 130.327 96.5194C130.437 96.6112 130.702 96.7069 131.124 96.8065C131.546 96.9061 131.857 97.0096 132.059 97.1171C132.262 97.2225 132.42 97.368 132.533 97.5536C132.648 97.7372 132.706 97.9647 132.706 98.2362C132.706 98.4823 132.638 98.7128 132.501 98.9276C132.364 99.1425 132.171 99.3026 131.921 99.4081C131.671 99.5116 131.359 99.5634 130.986 99.5634C130.443 99.5634 130.026 99.4384 129.735 99.1884C129.444 98.9364 129.271 98.5702 129.214 98.0897ZM133.438 99.4872V95.1923H134.306V96.8827H136.005V95.1923H136.872V99.4872H136.005V97.6093H134.306V99.4872H133.438ZM137.596 97.3661C137.596 96.9286 137.661 96.5614 137.792 96.2645C137.89 96.0458 138.022 95.8495 138.19 95.6757C138.36 95.5018 138.546 95.3729 138.747 95.2889C139.015 95.1757 139.323 95.119 139.673 95.119C140.306 95.119 140.812 95.3153 141.19 95.7079C141.571 96.1005 141.762 96.6464 141.762 97.3456C141.762 98.0389 141.573 98.5819 141.196 98.9745C140.819 99.3651 140.315 99.5604 139.685 99.5604C139.046 99.5604 138.538 99.3661 138.161 98.9774C137.784 98.5868 137.596 98.0497 137.596 97.3661ZM138.489 97.3368C138.489 97.8231 138.602 98.1923 138.826 98.4442C139.051 98.6942 139.336 98.8192 139.682 98.8192C140.027 98.8192 140.311 98.6952 140.531 98.4471C140.754 98.1971 140.865 97.8231 140.865 97.3251C140.865 96.8329 140.757 96.4657 140.54 96.2235C140.325 95.9813 140.039 95.8602 139.682 95.8602C139.324 95.8602 139.036 95.9833 138.817 96.2294C138.599 96.4735 138.489 96.8427 138.489 97.3368ZM142.441 99.4872V95.1923H143.833C144.36 95.1923 144.704 95.2137 144.864 95.2567C145.11 95.3212 145.316 95.4618 145.482 95.6786C145.648 95.8934 145.731 96.1718 145.731 96.5135C145.731 96.7772 145.684 96.9989 145.588 97.1786C145.492 97.3583 145.37 97.4999 145.222 97.6034C145.075 97.705 144.926 97.7723 144.773 97.8055C144.566 97.8466 144.267 97.8671 143.874 97.8671H143.309V99.4872H142.441ZM143.309 95.9188V97.1376H143.783C144.125 97.1376 144.354 97.1151 144.469 97.0702C144.584 97.0253 144.674 96.955 144.738 96.8593C144.805 96.7635 144.838 96.6522 144.838 96.5253C144.838 96.369 144.792 96.2401 144.7 96.1385C144.608 96.037 144.492 95.9735 144.352 95.9481C144.248 95.9286 144.04 95.9188 143.728 95.9188H143.309Z" fill="#E71B84"/>
<path d="M6.45117 29.7051H7.31836V33.2793H9V29.7051H9.86719V33.2793H10.2246V34.9375H9.50391V34H6.45117V29.7051ZM10.8193 34V29.7051H14.0039V30.4316H11.6865V31.3838H13.8428V32.1074H11.6865V33.2764H14.0859V34H10.8193ZM14.8242 34V29.7051H15.6914V31.3955H17.3906V29.7051H18.2578V34H17.3906V32.1221H15.6914V34H14.8242ZM23.0303 34H22.0869L21.7119 33.0244H19.9951L19.6406 34H18.7207L20.3936 29.7051H21.3105L23.0303 34ZM21.4336 32.3008L20.8418 30.707L20.2617 32.3008H21.4336ZM25.1748 29.7051H28.5908V34H27.7236V30.4258H26.042V34H25.1748V29.7051ZM29.4756 34V29.7051H30.8672C31.3945 29.7051 31.7383 29.7266 31.8984 29.7695C32.1445 29.834 32.3506 29.9746 32.5166 30.1914C32.6826 30.4062 32.7656 30.6846 32.7656 31.0264C32.7656 31.29 32.7178 31.5117 32.6221 31.6914C32.5264 31.8711 32.4043 32.0127 32.2559 32.1162C32.1094 32.2178 31.96 32.2852 31.8076 32.3184C31.6006 32.3594 31.3008 32.3799 30.9082 32.3799H30.3428V34H29.4756ZM30.3428 30.4316V31.6504H30.8174C31.1592 31.6504 31.3877 31.6279 31.5029 31.583C31.6182 31.5381 31.708 31.4678 31.7725 31.3721C31.8389 31.2764 31.8721 31.165 31.8721 31.0381C31.8721 30.8818 31.8262 30.7529 31.7344 30.6514C31.6426 30.5498 31.5264 30.4863 31.3857 30.4609C31.2822 30.4414 31.0742 30.4316 30.7617 30.4316H30.3428ZM33.4893 29.7051H34.3008V32.5645L36.041 29.7051H36.9053V34H36.0938V31.1963L34.3564 34H33.4893V29.7051ZM39.46 34V29.7051H40.8516C41.3789 29.7051 41.7227 29.7266 41.8828 29.7695C42.1289 29.834 42.335 29.9746 42.501 30.1914C42.667 30.4062 42.75 30.6846 42.75 31.0264C42.75 31.29 42.7021 31.5117 42.6064 31.6914C42.5107 31.8711 42.3887 32.0127 42.2402 32.1162C42.0938 32.2178 41.9443 32.2852 41.792 32.3184C41.585 32.3594 41.2852 32.3799 40.8926 32.3799H40.3271V34H39.46ZM40.3271 30.4316V31.6504H40.8018C41.1436 31.6504 41.3721 31.6279 41.4873 31.583C41.6025 31.5381 41.6924 31.4678 41.7568 31.3721C41.8232 31.2764 41.8564 31.165 41.8564 31.0381C41.8564 30.8818 41.8105 30.7529 41.7188 30.6514C41.627 30.5498 41.5107 30.4863 41.3701 30.4609C41.2666 30.4414 41.0586 30.4316 40.7461 30.4316H40.3271ZM43.4619 34V29.7051H46.6465V30.4316H44.3291V31.3838H46.4854V32.1074H44.3291V33.2764H46.7285V34H43.4619ZM47.5078 29.7051H50.417V30.4258H48.375V34H47.5078V29.7051ZM50.8799 29.7051H51.6914V32.5645L53.4316 29.7051H54.2959V34H53.4844V31.1963L51.7471 34H50.8799V29.7051ZM57.9287 32.4209L58.7695 32.6875C58.6406 33.1562 58.4258 33.5049 58.125 33.7334C57.8262 33.96 57.4463 34.0732 56.9854 34.0732C56.415 34.0732 55.9463 33.8789 55.5791 33.4902C55.2119 33.0996 55.0283 32.5664 55.0283 31.8906C55.0283 31.1758 55.2129 30.6211 55.582 30.2266C55.9512 29.8301 56.4365 29.6318 57.0381 29.6318C57.5635 29.6318 57.9902 29.7871 58.3184 30.0977C58.5137 30.2812 58.6602 30.5449 58.7578 30.8887L57.8994 31.0938C57.8486 30.8711 57.7422 30.6953 57.5801 30.5664C57.4199 30.4375 57.2246 30.373 56.9941 30.373C56.6758 30.373 56.417 30.4873 56.2178 30.7158C56.0205 30.9443 55.9219 31.3145 55.9219 31.8262C55.9219 32.3691 56.0195 32.7559 56.2148 32.9863C56.4102 33.2168 56.6641 33.332 56.9766 33.332C57.207 33.332 57.4053 33.2588 57.5713 33.1123C57.7373 32.9658 57.8564 32.7354 57.9287 32.4209ZM60.3311 34V30.4316H59.0566V29.7051H62.4697V30.4316H61.1982V34H60.3311ZM63.0322 34V29.7051H64.4238C64.9512 29.7051 65.2949 29.7266 65.4551 29.7695C65.7012 29.834 65.9072 29.9746 66.0732 30.1914C66.2393 30.4062 66.3223 30.6846 66.3223 31.0264C66.3223 31.29 66.2744 31.5117 66.1787 31.6914C66.083 31.8711 65.9609 32.0127 65.8125 32.1162C65.666 32.2178 65.5166 32.2852 65.3643 32.3184C65.1572 32.3594 64.8574 32.3799 64.4648 32.3799H63.8994V34H63.0322ZM63.8994 30.4316V31.6504H64.374C64.7158 31.6504 64.9443 31.6279 65.0596 31.583C65.1748 31.5381 65.2646 31.4678 65.3291 31.3721C65.3955 31.2764 65.4287 31.165 65.4287 31.0381C65.4287 30.8818 65.3828 30.7529 65.291 30.6514C65.1992 30.5498 65.083 30.4863 64.9424 30.4609C64.8389 30.4414 64.6309 30.4316 64.3184 30.4316H63.8994ZM70.3799 34H69.4365L69.0615 33.0244H67.3447L66.9902 34H66.0703L67.7432 29.7051H68.6602L70.3799 34ZM68.7832 32.3008L68.1914 30.707L67.6113 32.3008H68.7832ZM70.8574 29.7051H71.7246V33.2793H73.4062V29.7051H74.2734V33.2793H74.6309V34.9375H73.9102V34H70.8574V29.7051ZM75.2373 29.7051H76.0488V32.5645L77.7891 29.7051H78.6533V34H77.8418V31.1963L76.1045 34H75.2373V29.7051ZM79.5498 29.7051H80.3613V32.5645L82.1016 29.7051H82.9658V34H82.1543V31.1963L80.417 34H79.5498V29.7051ZM86.6162 34L85.0811 29.7051H86.0215L87.1084 32.8838L88.1602 29.7051H89.0801L87.542 34H86.6162ZM88.9658 34V33.1768H89.7891V34H88.9658ZM92.0918 32.6025L92.9355 32.5205C92.9863 32.8037 93.0889 33.0117 93.2432 33.1445C93.3994 33.2773 93.6094 33.3438 93.873 33.3438C94.1523 33.3438 94.3623 33.2852 94.5029 33.168C94.6455 33.0488 94.7168 32.9102 94.7168 32.752C94.7168 32.6504 94.6865 32.5645 94.626 32.4941C94.5674 32.4219 94.4639 32.3594 94.3154 32.3066C94.2139 32.2715 93.9824 32.209 93.6211 32.1191C93.1562 32.0039 92.8301 31.8623 92.6426 31.6943C92.3789 31.458 92.2471 31.1699 92.2471 30.8301C92.2471 30.6113 92.3086 30.4072 92.4316 30.2178C92.5566 30.0264 92.7354 29.8809 92.9678 29.7812C93.2021 29.6816 93.4844 29.6318 93.8145 29.6318C94.3535 29.6318 94.7588 29.75 95.0303 29.9863C95.3037 30.2227 95.4473 30.5381 95.4609 30.9326L94.5938 30.9707C94.5566 30.75 94.4766 30.5918 94.3535 30.4961C94.2324 30.3984 94.0498 30.3496 93.8057 30.3496C93.5537 30.3496 93.3564 30.4014 93.2139 30.5049C93.1221 30.5713 93.0762 30.6602 93.0762 30.7715C93.0762 30.873 93.1191 30.96 93.2051 31.0322C93.3145 31.124 93.5801 31.2197 94.002 31.3193C94.4238 31.4189 94.7354 31.5225 94.9365 31.6299C95.1396 31.7354 95.2979 31.8809 95.4111 32.0664C95.5264 32.25 95.584 32.4775 95.584 32.749C95.584 32.9951 95.5156 33.2256 95.3789 33.4404C95.2422 33.6553 95.0488 33.8154 94.7988 33.9209C94.5488 34.0244 94.2373 34.0762 93.8643 34.0762C93.3213 34.0762 92.9043 33.9512 92.6133 33.7012C92.3223 33.4492 92.1484 33.083 92.0918 32.6025ZM96.3164 34V29.7051H97.1836V31.3955H98.8828V29.7051H99.75V34H98.8828V32.1221H97.1836V34H96.3164ZM100.474 31.8789C100.474 31.4414 100.539 31.0742 100.67 30.7773C100.768 30.5586 100.9 30.3623 101.068 30.1885C101.238 30.0146 101.424 29.8857 101.625 29.8018C101.893 29.6885 102.201 29.6318 102.551 29.6318C103.184 29.6318 103.689 29.8281 104.068 30.2207C104.449 30.6133 104.64 31.1592 104.64 31.8584C104.64 32.5518 104.451 33.0947 104.074 33.4873C103.697 33.8779 103.193 34.0732 102.562 34.0732C101.924 34.0732 101.416 33.8789 101.039 33.4902C100.662 33.0996 100.474 32.5625 100.474 31.8789ZM101.367 31.8496C101.367 32.3359 101.479 32.7051 101.704 32.957C101.929 33.207 102.214 33.332 102.56 33.332C102.905 33.332 103.188 33.208 103.409 32.96C103.632 32.71 103.743 32.3359 103.743 31.8379C103.743 31.3457 103.635 30.9785 103.418 30.7363C103.203 30.4941 102.917 30.373 102.56 30.373C102.202 30.373 101.914 30.4961 101.695 30.7422C101.477 30.9863 101.367 31.3555 101.367 31.8496ZM105.319 34V29.7051H106.711C107.238 29.7051 107.582 29.7266 107.742 29.7695C107.988 29.834 108.194 29.9746 108.36 30.1914C108.526 30.4062 108.609 30.6846 108.609 31.0264C108.609 31.29 108.562 31.5117 108.466 31.6914C108.37 31.8711 108.248 32.0127 108.1 32.1162C107.953 32.2178 107.804 32.2852 107.651 32.3184C107.444 32.3594 107.145 32.3799 106.752 32.3799H106.187V34H105.319ZM106.187 30.4316V31.6504H106.661C107.003 31.6504 107.231 31.6279 107.347 31.583C107.462 31.5381 107.552 31.4678 107.616 31.3721C107.683 31.2764 107.716 31.165 107.716 31.0381C107.716 30.8818 107.67 30.7529 107.578 30.6514C107.486 30.5498 107.37 30.4863 107.229 30.4609C107.126 30.4414 106.918 30.4316 106.605 30.4316H106.187Z" fill="#E71B84"/>
</g>
<rect x="1" y="1" width="155.91" height="127.56" stroke="black" stroke-dasharray="5 5"/>
<defs>
<clipPath id="clip0_226_1337">
<rect x="1" y="1" width="155.91" height="127.56" fill="white"/>
</clipPath>
</defs>
</svg>
