<svg width="158" height="130" viewBox="0 0 158 130" fill="none" xmlns="http://www.w3.org/2000/svg">
<g clip-path="url(#clip0_226_1337)">
<rect x="1" y="1" width="155.91" height="127.56" fill="#EDE7F3"/>
<path d="M69.7495 -2.18996C77.5695 3.92004 77.1595 9.02004 90.9995 19.5C106.64 31.34 109.31 26.4701 122.49 36.47C137.79 48.09 137.46 57.15 150.62 61.54C180.325 71.4787 165.569 -2.18994 165.569 -2.18994L65.6295 -8.45996C65.2495 -5.60996 68.7195 -2.98996 69.7495 -2.18996Z" fill="#B0A9CB"/>
<path d="M-0.999592 58.86C12.2104 52.6 31.3904 64.2 41.7204 76.75C44.6404 80.29 43.5404 79.9001 47.5304 85.1601C50.2304 88.7201 57.5704 97.94 73.5204 109.62C84.2104 117.45 89.1105 119.3 107.501 132.5C107.501 132.5 14.8604 133.165 -3 132.5L-2.99955 72.5C-2.99955 72.5 -2.78959 59.71 -0.999592 58.86Z" fill="#B0A9CB"/>
<path d="M78.9502 -1.62C90.5502 9.25 101.16 17.34 109.34 23.05C111.54 24.59 130.17 37.45 145.46 41.24C148.03 41.88 153.32 43.15 160.26 42.7" stroke="#77709A" stroke-width="2" stroke-miterlimit="10"/>
<path d="M-0.919922 58.3101C30.6501 61.6001 47.8501 72.6301 57.7801 82.3101C70.5201 94.7301 69.2101 102.92 83.3701 110.74C97.0501 118.3 109.63 116.94 124.31 129.54" stroke="#77709A" stroke-width="2" stroke-miterlimit="10"/>
<path d="M137.765 25H1V5H137.774C142.87 5 147 9.47686 147 15C146.99 20.5231 142.86 25 137.765 25Z" fill="white"/>
<path d="M157.5 119H78.3385C72.0786 119 67 111.172 67 101.5C67 91.8383 72.0721 84 78.3385 84H157.5V119Z" fill="white"/>
<path d="M114.451 87.7051H115.318V91.2793H117V87.7051H117.867V91.2793H118.225V92.9375H117.504V92H114.451V87.7051ZM118.819 92V87.7051H122.004V88.4316H119.687V89.3838H121.843V90.1074H119.687V91.2764H122.086V92H118.819ZM122.824 92V87.7051H123.691V89.3955H125.391V87.7051H126.258V92H125.391V90.1221H123.691V92H122.824ZM131.03 92H130.087L129.712 91.0244H127.995L127.641 92H126.721L128.394 87.7051H129.311L131.03 92ZM129.434 90.3008L128.842 88.707L128.262 90.3008H129.434ZM133.175 87.7051H136.591V92H135.724V88.4258H134.042V92H133.175V87.7051ZM137.476 92V87.7051H138.867C139.395 87.7051 139.738 87.7266 139.898 87.7695C140.145 87.834 140.351 87.9746 140.517 88.1914C140.683 88.4062 140.766 88.6846 140.766 89.0264C140.766 89.29 140.718 89.5117 140.622 89.6914C140.526 89.8711 140.404 90.0127 140.256 90.1162C140.109 90.2178 139.96 90.2852 139.808 90.3184C139.601 90.3594 139.301 90.3799 138.908 90.3799H138.343V92H137.476ZM138.343 88.4316V89.6504H138.817C139.159 89.6504 139.388 89.6279 139.503 89.583C139.618 89.5381 139.708 89.4678 139.772 89.3721C139.839 89.2764 139.872 89.165 139.872 89.0381C139.872 88.8818 139.826 88.7529 139.734 88.6514C139.643 88.5498 139.526 88.4863 139.386 88.4609C139.282 88.4414 139.074 88.4316 138.762 88.4316H138.343ZM141.489 87.7051H142.301V90.5645L144.041 87.7051H144.905V92H144.094V89.1963L142.356 92H141.489V87.7051Z" fill="#E71B84"/>
<path d="M76.582 99.4872V95.1923H77.9736C78.501 95.1923 78.8447 95.2137 79.0049 95.2567C79.251 95.3212 79.457 95.4618 79.623 95.6786C79.7891 95.8934 79.8721 96.1718 79.8721 96.5135C79.8721 96.7772 79.8242 96.9989 79.7285 97.1786C79.6328 97.3583 79.5107 97.4999 79.3623 97.6034C79.2158 97.705 79.0664 97.7723 78.9141 97.8055C78.707 97.8466 78.4072 97.8671 78.0146 97.8671H77.4492V99.4872H76.582ZM77.4492 95.9188V97.1376H77.9238C78.2656 97.1376 78.4941 97.1151 78.6094 97.0702C78.7246 97.0253 78.8145 96.955 78.8789 96.8593C78.9453 96.7635 78.9785 96.6522 78.9785 96.5253C78.9785 96.369 78.9326 96.2401 78.8408 96.1385C78.749 96.037 78.6328 95.9735 78.4922 95.9481C78.3887 95.9286 78.1807 95.9188 77.8682 95.9188H77.4492ZM80.584 99.4872V95.1923H83.7686V95.9188H81.4512V96.871H83.6074V97.5946H81.4512V98.7635H83.8506V99.4872H80.584ZM84.6299 95.1923H87.5391V95.913H85.4971V99.4872H84.6299V95.1923ZM88.002 95.1923H88.8135V98.0516L90.5537 95.1923H91.418V99.4872H90.6064V96.6835L88.8691 99.4872H88.002V95.1923ZM95.0508 97.9081L95.8916 98.1747C95.7627 98.6434 95.5479 98.9921 95.2471 99.2206C94.9482 99.4471 94.5684 99.5604 94.1074 99.5604C93.5371 99.5604 93.0684 99.3661 92.7012 98.9774C92.334 98.5868 92.1504 98.0536 92.1504 97.3778C92.1504 96.663 92.335 96.1083 92.7041 95.7137C93.0732 95.3173 93.5586 95.119 94.1602 95.119C94.6855 95.119 95.1123 95.2743 95.4404 95.5848C95.6357 95.7684 95.7822 96.0321 95.8799 96.3759L95.0215 96.5809C94.9707 96.3583 94.8643 96.1825 94.7021 96.0536C94.542 95.9247 94.3467 95.8602 94.1162 95.8602C93.7979 95.8602 93.5391 95.9745 93.3398 96.203C93.1426 96.4315 93.0439 96.8016 93.0439 97.3134C93.0439 97.8563 93.1416 98.243 93.3369 98.4735C93.5322 98.704 93.7861 98.8192 94.0986 98.8192C94.3291 98.8192 94.5273 98.746 94.6934 98.5995C94.8594 98.453 94.9785 98.2225 95.0508 97.9081ZM97.4531 99.4872V95.9188H96.1787V95.1923H99.5918V95.9188H98.3203V99.4872H97.4531ZM100.154 99.4872V95.1923H101.546C102.073 95.1923 102.417 95.2137 102.577 95.2567C102.823 95.3212 103.029 95.4618 103.195 95.6786C103.361 95.8934 103.444 96.1718 103.444 96.5135C103.444 96.7772 103.396 96.9989 103.301 97.1786C103.205 97.3583 103.083 97.4999 102.935 97.6034C102.788 97.705 102.639 97.7723 102.486 97.8055C102.279 97.8466 101.979 97.8671 101.587 97.8671H101.021V99.4872H100.154ZM101.021 95.9188V97.1376H101.496C101.838 97.1376 102.066 97.1151 102.182 97.0702C102.297 97.0253 102.387 96.955 102.451 96.8593C102.518 96.7635 102.551 96.6522 102.551 96.5253C102.551 96.369 102.505 96.2401 102.413 96.1385C102.321 96.037 102.205 95.9735 102.064 95.9481C101.961 95.9286 101.753 95.9188 101.44 95.9188H101.021ZM107.502 99.4872H106.559L106.184 98.5116H104.467L104.112 99.4872H103.192L104.865 95.1923H105.782L107.502 99.4872ZM105.905 97.788L105.313 96.1942L104.733 97.788H105.905ZM107.979 95.1923H108.847V98.7665H110.528V95.1923H111.396V98.7665H111.753V100.425H111.032V99.4872H107.979V95.1923ZM112.359 95.1923H113.171V98.0516L114.911 95.1923H115.775V99.4872H114.964V96.6835L113.227 99.4872H112.359V95.1923ZM116.672 95.1923H117.483V98.0516L119.224 95.1923H120.088V99.4872H119.276V96.6835L117.539 99.4872H116.672V95.1923ZM123.738 99.4872L122.203 95.1923H123.144L124.23 98.371L125.282 95.1923H126.202L124.664 99.4872H123.738ZM126.088 99.4872V98.6639H126.911V99.4872H126.088ZM129.214 98.0897L130.058 98.0077C130.108 98.2909 130.211 98.4989 130.365 98.6317C130.521 98.7645 130.731 98.8309 130.995 98.8309C131.274 98.8309 131.484 98.7723 131.625 98.6552C131.768 98.536 131.839 98.3973 131.839 98.2391C131.839 98.1376 131.809 98.0516 131.748 97.9813C131.689 97.9091 131.586 97.8466 131.438 97.7938C131.336 97.7587 131.104 97.6962 130.743 97.6063C130.278 97.4911 129.952 97.3495 129.765 97.1815C129.501 96.9452 129.369 96.6571 129.369 96.3173C129.369 96.0985 129.431 95.8944 129.554 95.705C129.679 95.5135 129.857 95.368 130.09 95.2684C130.324 95.1688 130.606 95.119 130.937 95.119C131.476 95.119 131.881 95.2372 132.152 95.4735C132.426 95.7098 132.569 96.0253 132.583 96.4198L131.716 96.4579C131.679 96.2372 131.599 96.079 131.476 95.9833C131.354 95.8856 131.172 95.8368 130.928 95.8368C130.676 95.8368 130.479 95.8885 130.336 95.9921C130.244 96.0585 130.198 96.1473 130.198 96.2587C130.198 96.3602 130.241 96.4471 130.327 96.5194C130.437 96.6112 130.702 96.7069 131.124 96.8065C131.546 96.9061 131.857 97.0096 132.059 97.1171C132.262 97.2225 132.42 97.368 132.533 97.5536C132.648 97.7372 132.706 97.9647 132.706 98.2362C132.706 98.4823 132.638 98.7128 132.501 98.9276C132.364 99.1425 132.171 99.3026 131.921 99.4081C131.671 99.5116 131.359 99.5634 130.986 99.5634C130.443 99.5634 130.026 99.4384 129.735 99.1884C129.444 98.9364 129.271 98.5702 129.214 98.0897ZM133.438 99.4872V95.1923H134.306V96.8827H136.005V95.1923H136.872V99.4872H136.005V97.6093H134.306V99.4872H133.438ZM137.596 97.3661C137.596 96.9286 137.661 96.5614 137.792 96.2645C137.89 96.0458 138.022 95.8495 138.19 95.6757C138.36 95.5018 138.546 95.3729 138.747 95.2889C139.015 95.1757 139.323 95.119 139.673 95.119C140.306 95.119 140.812 95.3153 141.19 95.7079C141.571 96.1005 141.762 96.6464 141.762 97.3456C141.762 98.0389 141.573 98.5819 141.196 98.9745C140.819 99.3651 140.315 99.5604 139.685 99.5604C139.046 99.5604 138.538 99.3661 138.161 98.9774C137.784 98.5868 137.596 98.0497 137.596 97.3661ZM138.489 97.3368C138.489 97.8231 138.602 98.1923 138.826 98.4442C139.051 98.6942 139.336 98.8192 139.682 98.8192C140.027 98.8192 140.311 98.6952 140.531 98.4471C140.754 98.1971 140.865 97.8231 140.865 97.3251C140.865 96.8329 140.757 96.4657 140.54 96.2235C140.325 95.9813 140.039 95.8602 139.682 95.8602C139.324 95.8602 139.036 95.9833 138.817 96.2294C138.599 96.4735 138.489 96.8427 138.489 97.3368ZM142.441 99.4872V95.1923H143.833C144.36 95.1923 144.704 95.2137 144.864 95.2567C145.11 95.3212 145.316 95.4618 145.482 95.6786C145.648 95.8934 145.731 96.1718 145.731 96.5135C145.731 96.7772 145.684 96.9989 145.588 97.1786C145.492 97.3583 145.37 97.4999 145.222 97.6034C145.075 97.705 144.926 97.7723 144.773 97.8055C144.566 97.8466 144.267 97.8671 143.874 97.8671H143.309V99.4872H142.441ZM143.309 95.9188V97.1376H143.783C144.125 97.1376 144.354 97.1151 144.469 97.0702C144.584 97.0253 144.674 96.955 144.738 96.8593C144.805 96.7635 144.838 96.6522 144.838 96.5253C144.838 96.369 144.792 96.2401 144.7 96.1385C144.608 96.037 144.492 95.9735 144.352 95.9481C144.248 95.9286 144.04 95.9188 143.728 95.9188H143.309Z" fill="#E71B84"/>
</g>
<rect x="1" y="1" width="155.91" height="127.56" stroke="black" stroke-dasharray="5 5"/>
<defs>
<clipPath id="clip0_226_1337">
<rect x="1" y="1" width="155.91" height="127.56" fill="white"/>
</clipPath>
</defs>
</svg>
